<svg width="150" height="48" viewBox="0 0 150 48" fill="none" xmlns="http://www.w3.org/2000/svg">
<circle cx="24" cy="24" r="24" fill="#6D3B27"/>
<path d="M44.4 24C46.3882 24 48.0276 25.6207 47.7305 27.5866C47.2057 31.0591 45.9226 34.3893 43.9553 37.3337C41.3181 41.2805 37.5698 44.3566 33.1844 46.1731C28.799 47.9896 23.9734 48.4649 19.3178 47.5388C14.6623 46.6128 10.3859 44.327 7.02944 40.9706C3.67298 37.6141 1.3872 33.3377 0.461153 28.6822C-0.464892 24.0266 0.0103881 19.201 1.82689 14.8156C3.64339 10.4302 6.71953 6.68188 10.6663 4.04473C13.6107 2.07738 16.9409 0.794328 20.4134 0.269487C22.3793 -0.0276419 24 1.61178 24 3.6C24 5.58822 22.3702 7.16143 20.4274 7.58425C18.381 8.02962 16.4254 8.85603 14.6664 10.0313C11.9037 11.8773 9.75038 14.5011 8.47882 17.5709C7.20727 20.6407 6.87458 24.0186 7.52281 27.2775C8.17104 30.5364 9.77108 33.5299 12.1206 35.8794C14.4701 38.2289 17.4636 39.829 20.7225 40.4772C23.9814 41.1254 27.3593 40.7927 30.4291 39.5212C33.4989 38.2496 36.1227 36.0963 37.9687 33.3336C39.144 31.5746 39.9704 29.619 40.4158 27.5726C40.8386 25.6298 42.4118 24 44.4 24Z" fill="#EE8313"/>
<path d="M12.152 30V18.16H14.328V23.024H19.272V18.16H21.448V30H19.272V24.912H14.328V30H12.152ZM23.7458 30V18.16H25.9218V23.296L30.4338 18.176H33.1538L28.0178 23.856L33.3618 30H30.5458L25.9218 24.592V30H23.7458Z" fill="white"/>
<path d="M66.152 30V18.16H68.328V23.024H73.272V18.16H75.448V30H73.272V24.912H68.328V30H66.152ZM77.9057 30V18.16H80.0817V23.296L84.5938 18.176H87.3138L82.1778 23.856L87.5218 30H84.7057L80.0817 24.592V30H77.9057ZM90.4357 20.208C90.0624 20.208 89.7531 20.0853 89.5077 19.84C89.2731 19.5947 89.1557 19.3013 89.1557 18.96C89.1557 18.6187 89.2731 18.3253 89.5077 18.08C89.7531 17.8347 90.0624 17.712 90.4357 17.712C90.8091 17.712 91.1184 17.8347 91.3637 18.08C91.6091 18.3253 91.7317 18.6187 91.7317 18.96C91.7317 19.3013 91.6091 19.5947 91.3637 19.84C91.1184 20.0853 90.8091 20.208 90.4357 20.208ZM89.3797 30V21.52H91.5077V30H89.3797ZM93.8782 30V21.52H96.0062V22.736H96.1022C96.1876 22.5867 96.3209 22.4053 96.5022 22.192C96.6836 21.968 96.9342 21.776 97.2542 21.616C97.5742 21.4453 97.9796 21.36 98.4702 21.36C99.1209 21.36 99.6542 21.5093 100.07 21.808C100.497 22.096 100.812 22.48 101.014 22.96C101.228 23.44 101.334 23.9573 101.334 24.512V30H99.2062V24.8C99.2062 24.3413 99.0782 23.9467 98.8222 23.616C98.5662 23.2853 98.1822 23.12 97.6702 23.12C97.2756 23.12 96.9556 23.2213 96.7102 23.424C96.4649 23.616 96.2836 23.8667 96.1662 24.176C96.0596 24.4853 96.0062 24.8107 96.0062 25.152V30H93.8782ZM105.755 30L102.603 21.52H104.763L106.891 27.568L108.987 21.52H111.147L107.979 30H105.755ZM114.009 20.208C113.636 20.208 113.327 20.0853 113.081 19.84C112.847 19.5947 112.729 19.3013 112.729 18.96C112.729 18.6187 112.847 18.3253 113.081 18.08C113.327 17.8347 113.636 17.712 114.009 17.712C114.383 17.712 114.692 17.8347 114.937 18.08C115.183 18.3253 115.305 18.6187 115.305 18.96C115.305 19.3013 115.183 19.5947 114.937 19.84C114.692 20.0853 114.383 20.208 114.009 20.208ZM112.953 30V21.52H115.081V30H112.953ZM120.876 30.16C120.183 30.16 119.612 30.0693 119.164 29.888C118.716 29.696 118.359 29.4613 118.092 29.184C117.836 28.896 117.644 28.6133 117.516 28.336C117.388 28.0587 117.303 27.8293 117.26 27.648C117.228 27.456 117.212 27.36 117.212 27.36H119.228C119.228 27.36 119.244 27.4187 119.276 27.536C119.319 27.6533 119.393 27.792 119.5 27.952C119.617 28.1013 119.793 28.2347 120.028 28.352C120.263 28.4693 120.572 28.528 120.956 28.528C121.415 28.528 121.745 28.432 121.948 28.24C122.151 28.0373 122.252 27.8133 122.252 27.568C122.252 27.3333 122.161 27.1467 121.98 27.008C121.809 26.8587 121.553 26.7467 121.212 26.672L120.044 26.432C119.575 26.336 119.137 26.1973 118.732 26.016C118.327 25.824 117.996 25.568 117.74 25.248C117.484 24.9173 117.356 24.496 117.356 23.984C117.356 23.2267 117.644 22.6027 118.22 22.112C118.796 21.6107 119.58 21.36 120.572 21.36C121.201 21.36 121.719 21.4453 122.124 21.616C122.54 21.7867 122.871 22 123.116 22.256C123.372 22.512 123.559 22.768 123.676 23.024C123.804 23.28 123.884 23.4987 123.916 23.68C123.959 23.8507 123.98 23.936 123.98 23.936H122.028C122.028 23.936 122.012 23.888 121.98 23.792C121.948 23.6853 121.879 23.568 121.772 23.44C121.676 23.312 121.527 23.2 121.324 23.104C121.132 22.9973 120.871 22.944 120.54 22.944C120.092 22.944 119.772 23.04 119.58 23.232C119.399 23.424 119.308 23.6267 119.308 23.84C119.308 24.0747 119.409 24.256 119.612 24.384C119.815 24.512 120.076 24.608 120.396 24.672L121.5 24.912C122.289 25.072 122.935 25.3493 123.436 25.744C123.948 26.1387 124.204 26.7093 124.204 27.456C124.204 27.9573 124.071 28.416 123.804 28.832C123.548 29.2373 123.169 29.5627 122.668 29.808C122.177 30.0427 121.58 30.16 120.876 30.16ZM127.329 20.208C126.956 20.208 126.647 20.0853 126.401 19.84C126.167 19.5947 126.049 19.3013 126.049 18.96C126.049 18.6187 126.167 18.3253 126.401 18.08C126.647 17.8347 126.956 17.712 127.329 17.712C127.703 17.712 128.012 17.8347 128.257 18.08C128.503 18.3253 128.625 18.6187 128.625 18.96C128.625 19.3013 128.503 19.5947 128.257 19.84C128.012 20.0853 127.703 20.208 127.329 20.208ZM126.273 30V21.52H128.401V30H126.273ZM134.996 30.16C134.068 30.16 133.279 29.952 132.628 29.536C131.977 29.12 131.481 28.5813 131.14 27.92C130.809 27.248 130.644 26.528 130.644 25.76C130.644 24.992 130.809 24.2773 131.14 23.616C131.481 22.944 131.977 22.4 132.628 21.984C133.279 21.568 134.068 21.36 134.996 21.36C135.935 21.36 136.724 21.568 137.364 21.984C138.015 22.4 138.505 22.944 138.836 23.616C139.177 24.2773 139.348 24.992 139.348 25.76C139.348 26.528 139.177 27.248 138.836 27.92C138.505 28.5813 138.015 29.12 137.364 29.536C136.724 29.952 135.935 30.16 134.996 30.16ZM134.996 28.384C135.476 28.384 135.876 28.2613 136.196 28.016C136.527 27.7707 136.777 27.4507 136.948 27.056C137.119 26.6507 137.204 26.2187 137.204 25.76C137.204 25.2907 137.119 24.8587 136.948 24.464C136.777 24.0693 136.527 23.7493 136.196 23.504C135.876 23.2587 135.476 23.136 134.996 23.136C134.527 23.136 134.127 23.2587 133.796 23.504C133.465 23.7493 133.215 24.0693 133.044 24.464C132.873 24.8587 132.788 25.2907 132.788 25.76C132.788 26.2187 132.873 26.6507 133.044 27.056C133.215 27.4507 133.465 27.7707 133.796 28.016C134.127 28.2613 134.527 28.384 134.996 28.384ZM141.307 30V21.52H143.435V22.736H143.531C143.616 22.5867 143.75 22.4053 143.931 22.192C144.112 21.968 144.363 21.776 144.683 21.616C145.003 21.4453 145.408 21.36 145.899 21.36C146.55 21.36 147.083 21.5093 147.499 21.808C147.926 22.096 148.24 22.48 148.443 22.96C148.656 23.44 148.763 23.9573 148.763 24.512V30H146.635V24.8C146.635 24.3413 146.507 23.9467 146.251 23.616C145.995 23.2853 145.611 23.12 145.099 23.12C144.704 23.12 144.384 23.2213 144.139 23.424C143.894 23.616 143.712 23.8667 143.595 24.176C143.488 24.4853 143.435 24.8107 143.435 25.152V30H141.307Z" fill="white"/>
</svg>
